<svg id="Layer_1" data-name="Layer 1" xmlns="http://www.w3.org/2000/svg" viewBox="0 0 901.06 614.9"><defs><style>.cls-1{opacity:0.15;}.cls-2{fill:#e3e6e5;}</style></defs><title>nbs-pattern</title><g class="cls-1"><path class="cls-2" d="M335.6,90.5a39.47,39.47,0,0,0,31.45,15.59V74.91A39.47,39.47,0,0,0,335.6,90.5Z"/><path class="cls-2" d="M320.6,99.15a39.58,39.58,0,0,0-29.24,19.45l27,15.6a39.63,39.63,0,0,0,2.23-35Z"/><path class="cls-2" d="M579.32,99.15a39.63,39.63,0,0,0,2.23,35l27-15.6A39.59,39.59,0,0,0,579.32,99.15Z"/><path class="cls-2" d="M662.24,99.15a39.63,39.63,0,0,0,2.23,35l27-15.6A39.58,39.58,0,0,0,662.24,99.15Z"/><path class="cls-2" d="M40.4,171a39.64,39.64,0,0,0,2.22,35l27-15.6A39.54,39.54,0,0,0,40.4,171Z"/><path class="cls-2" d="M30.41,153.64a39.43,39.43,0,0,0,3.06-15.28,39.31,39.31,0,0,0-5.29-19.76l-27,15.59A39.55,39.55,0,0,0,30.41,153.64Z"/><path class="cls-2" d="M123.31,153.64a39.55,39.55,0,0,0,29.24-19.45l-27-15.59a39.61,39.61,0,0,0-2.23,35Z"/><path class="cls-2" d="M128.32,162.3a39.47,39.47,0,0,0,31.45,15.59V146.71A39.47,39.47,0,0,0,128.32,162.3Z"/><path class="cls-2" d="M123.31,171a39.61,39.61,0,0,0,2.23,35l27-15.6A39.52,39.52,0,0,0,123.31,171Z"/><path class="cls-2" d="M108.31,162.3a39.47,39.47,0,0,0-31.45-15.59h0v31.18h0A39.47,39.47,0,0,0,108.31,162.3Z"/><path class="cls-2" d="M206.22,153.64a39.53,39.53,0,0,0,29.24-19.45l-27-15.59a39.61,39.61,0,0,0-2.23,35Z"/><path class="cls-2" d="M206.22,171a39.61,39.61,0,0,0,2.23,35l27-15.6A39.52,39.52,0,0,0,206.22,171Z"/><path class="cls-2" d="M196.23,171A39.52,39.52,0,0,0,167,190.4L194,206a39.52,39.52,0,0,0,2.23-35Z"/><path class="cls-2" d="M403.52,242.75a39.55,39.55,0,0,0-29.24,19.45l27,15.6a39.63,39.63,0,0,0,2.23-35.05Z"/><path class="cls-2" d="M196.23,153.64a39.52,39.52,0,0,0-2.23-35l-27,15.59A39.53,39.53,0,0,0,196.23,153.64Z"/><path class="cls-2" d="M372.05,171a39.61,39.61,0,0,0,2.23,35l27-15.6A39.5,39.5,0,0,0,372.05,171Z"/><path class="cls-2" d="M362.06,171a39.52,39.52,0,0,0-29.24,19.44l27,15.6a39.61,39.61,0,0,0,2.23-35Z"/><path class="cls-2" d="M362.06,153.64a39.61,39.61,0,0,0-2.23-35l-27,15.59A39.53,39.53,0,0,0,362.06,153.64Z"/><path class="cls-2" d="M455,153.64a39.53,39.53,0,0,0,29.24-19.45l-27-15.59a39.61,39.61,0,0,0-2.23,35Z"/><path class="cls-2" d="M455,171a39.61,39.61,0,0,0,2.23,35l27-15.6A39.52,39.52,0,0,0,455,171Z"/><path class="cls-2" d="M445,171a39.54,39.54,0,0,0-29.24,19.44l27,15.6A39.61,39.61,0,0,0,445,171Z"/><path class="cls-2" d="M440,162.3a39.47,39.47,0,0,0-31.45-15.59h0v31.18h0A39.47,39.47,0,0,0,440,162.3Z"/><path class="cls-2" d="M537.87,171a39.61,39.61,0,0,0,2.23,35l27-15.6A39.52,39.52,0,0,0,537.87,171Z"/><path class="cls-2" d="M527.88,171a39.5,39.5,0,0,0-29.23,19.44l27,15.6a39.61,39.61,0,0,0,2.23-35Z"/><path class="cls-2" d="M527.88,153.64a39.61,39.61,0,0,0-2.23-35l-27,15.59A39.51,39.51,0,0,0,527.88,153.64Z"/><path class="cls-2" d="M206.22,27.35a39.63,39.63,0,0,0,2.23,35.05l27-15.6A39.58,39.58,0,0,0,206.22,27.35Z"/><path class="cls-2" d="M154.78,81.84a39.61,39.61,0,0,0-2.23-35l-27,15.59A39.53,39.53,0,0,0,154.78,81.84Z"/><path class="cls-2" d="M522.87,162.3a39.45,39.45,0,0,0-31.45-15.59h0v31.18h0A39.45,39.45,0,0,0,522.87,162.3Z"/><path class="cls-2" d="M625.79,162.3a39.49,39.49,0,0,0,31.46,15.59V146.71A39.49,39.49,0,0,0,625.79,162.3Z"/><path class="cls-2" d="M610.8,171a39.52,39.52,0,0,0-29.24,19.44l27,15.6a39.61,39.61,0,0,0,2.23-35Z"/><path class="cls-2" d="M605.78,162.3a39.44,39.44,0,0,0-31.45-15.59h0v31.18h0A39.44,39.44,0,0,0,605.78,162.3Z"/><path class="cls-2" d="M154.78,242.76a39.52,39.52,0,0,0-29.24,19.44l27,15.6a39.61,39.61,0,0,0,2.23-35Z"/><path class="cls-2" d="M154.78,225.44a39.61,39.61,0,0,0-2.23-35l-27,15.6A39.52,39.52,0,0,0,154.78,225.44Z"/><path class="cls-2" d="M247.68,225.44A39.54,39.54,0,0,0,276.92,206l-27-15.6a39.61,39.61,0,0,0-2.23,35Z"/><path class="cls-2" d="M252.69,234.1a39.44,39.44,0,0,0,31.45,15.59V218.51A39.47,39.47,0,0,0,252.69,234.1Z"/><path class="cls-2" d="M247.68,242.76a39.61,39.61,0,0,0,2.23,35l27-15.6A39.52,39.52,0,0,0,247.68,242.76Z"/><path class="cls-2" d="M237.69,225.44a39.61,39.61,0,0,0-2.23-35l-27,15.6A39.54,39.54,0,0,0,237.69,225.44Z"/><path class="cls-2" d="M232.68,234.1a39.47,39.47,0,0,0-31.45-15.59h0v31.18h0A39.44,39.44,0,0,0,232.68,234.1Z"/><path class="cls-2" d="M330.59,225.44A39.52,39.52,0,0,0,359.83,206l-27-15.6a39.61,39.61,0,0,0-2.23,35Z"/><path class="cls-2" d="M335.6,234.1a39.44,39.44,0,0,0,31.45,15.59V218.51A39.47,39.47,0,0,0,335.6,234.1Z"/><path class="cls-2" d="M330.59,242.76a39.61,39.61,0,0,0,2.23,35l27-15.6A39.52,39.52,0,0,0,330.59,242.76Z"/><path class="cls-2" d="M320.6,242.76a39.52,39.52,0,0,0-29.23,19.44l27,15.6a39.55,39.55,0,0,0,2.22-35Z"/><path class="cls-2" d="M320.6,225.44a39.55,39.55,0,0,0-2.22-35l-27,15.6A39.52,39.52,0,0,0,320.6,225.44Z"/><path class="cls-2" d="M418.51,234.1A39.45,39.45,0,0,0,450,249.69V218.51A39.48,39.48,0,0,0,418.51,234.1Z"/><path class="cls-2" d="M413.5,242.76a39.61,39.61,0,0,0,2.23,35l27-15.6A39.52,39.52,0,0,0,413.5,242.76Z"/><path class="cls-2" d="M403.52,225.44a39.57,39.57,0,0,0-2.24-35l-27,15.6A39.52,39.52,0,0,0,403.52,225.44Z"/><path class="cls-2" d="M398.51,234.1a39.47,39.47,0,0,0-31.46-15.59h0v31.18h0A39.44,39.44,0,0,0,398.51,234.1Z"/><path class="cls-2" d="M486.43,225.44a39.61,39.61,0,0,0-2.23-35l-27,15.6A39.54,39.54,0,0,0,486.43,225.44Z"/><path class="cls-2" d="M481.42,234.1A39.47,39.47,0,0,0,450,218.51h0v31.18h0A39.44,39.44,0,0,0,481.42,234.1Z"/><path class="cls-2" d="M501.42,234.1a39.46,39.46,0,0,0,31.46,15.59V218.51A39.49,39.49,0,0,0,501.42,234.1Z"/><path class="cls-2" d="M496.42,242.76a39.64,39.64,0,0,0,2.22,35l27-15.6A39.5,39.5,0,0,0,496.42,242.76Z"/><path class="cls-2" d="M294.15,305.9a39.44,39.44,0,0,0,31.45,15.59V290.31A39.47,39.47,0,0,0,294.15,305.9Z"/><path class="cls-2" d="M279.15,314.56A39.52,39.52,0,0,0,249.91,334l27,15.6a39.61,39.61,0,0,0,2.23-35Z"/><path class="cls-2" d="M372.05,297.24a39.57,39.57,0,0,0,29.24-19.44l-27-15.6a39.61,39.61,0,0,0-2.23,35Z"/><path class="cls-2" d="M377.06,305.9a39.44,39.44,0,0,0,31.45,15.59V290.31A39.47,39.47,0,0,0,377.06,305.9Z"/><path class="cls-2" d="M372.05,314.56a39.61,39.61,0,0,0,2.23,35l27-15.6A39.54,39.54,0,0,0,372.05,314.56Z"/><path class="cls-2" d="M362.06,314.56A39.54,39.54,0,0,0,332.82,334l27,15.6a39.61,39.61,0,0,0,2.23-35Z"/><path class="cls-2" d="M362.06,297.24a39.61,39.61,0,0,0-2.23-35l-27,15.6A39.57,39.57,0,0,0,362.06,297.24Z"/><path class="cls-2" d="M455,297.24A39.55,39.55,0,0,0,484.2,277.8l-27-15.6a39.61,39.61,0,0,0-2.23,35Z"/><path class="cls-2" d="M460,305.9a39.44,39.44,0,0,0,31.45,15.59V290.31A39.47,39.47,0,0,0,460,305.9Z"/><path class="cls-2" d="M455,314.56a39.61,39.61,0,0,0,2.23,35l27-15.6A39.52,39.52,0,0,0,455,314.56Z"/><path class="cls-2" d="M445,314.56A39.5,39.5,0,0,0,415.74,334l27,15.6a39.52,39.52,0,0,0,2.23-35Z"/><path class="cls-2" d="M445,297.24a39.52,39.52,0,0,0-2.23-35l-27,15.6A39.53,39.53,0,0,0,445,297.24Z"/><path class="cls-2" d="M440,305.9a39.47,39.47,0,0,0-31.45-15.59h0v31.18h0A39.44,39.44,0,0,0,440,305.9Z"/><path class="cls-2" d="M542.88,305.9a39.45,39.45,0,0,0,31.45,15.59V290.31A39.48,39.48,0,0,0,542.88,305.9Z"/><path class="cls-2" d="M537.87,314.56a39.61,39.61,0,0,0,2.23,35l27-15.6A39.52,39.52,0,0,0,537.87,314.56Z"/><path class="cls-2" d="M527.89,314.56A39.52,39.52,0,0,0,498.65,334l27,15.6a39.66,39.66,0,0,0,2.24-35Z"/><path class="cls-2" d="M527.89,297.24a39.66,39.66,0,0,0-2.24-35l-27,15.6A39.55,39.55,0,0,0,527.89,297.24Z"/><path class="cls-2" d="M522.87,305.9a39.44,39.44,0,0,0-31.45-15.59h0v31.18h0A39.41,39.41,0,0,0,522.87,305.9Z"/><path class="cls-2" d="M620.79,297.24A39.58,39.58,0,0,0,650,277.8l-27-15.6a39.52,39.52,0,0,0-2.23,35Z"/><path class="cls-2" d="M128.32,18.7a39.47,39.47,0,0,0,31.45,15.59V3.11A39.44,39.44,0,0,0,128.32,18.7Z"/><path class="cls-2" d="M610.8,314.56A39.52,39.52,0,0,0,581.56,334l27,15.6a39.61,39.61,0,0,0,2.23-35Z"/><path class="cls-2" d="M610.8,297.24a39.61,39.61,0,0,0-2.23-35l-27,15.6A39.55,39.55,0,0,0,610.8,297.24Z"/><path class="cls-2" d="M708.71,305.9a39.44,39.44,0,0,0,31.45,15.59V290.31A39.47,39.47,0,0,0,708.71,305.9Z"/><path class="cls-2" d="M693.71,314.56A39.52,39.52,0,0,0,664.47,334l27,15.6a39.61,39.61,0,0,0,2.23-35Z"/><path class="cls-2" d="M693.71,297.24a39.61,39.61,0,0,0-2.23-35l-27,15.6A39.55,39.55,0,0,0,693.71,297.24Z"/><path class="cls-2" d="M247.68,369a39.51,39.51,0,0,0,29.24-19.45l-27-15.59a39.61,39.61,0,0,0-2.23,35Z"/><path class="cls-2" d="M247.68,386.36a39.61,39.61,0,0,0,2.23,35l27-15.59A39.51,39.51,0,0,0,247.68,386.36Z"/><path class="cls-2" d="M237.69,369a39.61,39.61,0,0,0-2.23-35l-27,15.59A39.51,39.51,0,0,0,237.69,369Z"/><path class="cls-2" d="M320.61,369a39.61,39.61,0,0,0-2.23-35l-27,15.59A39.51,39.51,0,0,0,320.61,369Z"/><path class="cls-2" d="M413.51,369a39.54,39.54,0,0,0,29.24-19.45l-27-15.59a39.52,39.52,0,0,0-2.23,35Z"/><path class="cls-2" d="M418.52,377.71A39.47,39.47,0,0,0,450,393.3V362.11A39.45,39.45,0,0,0,418.52,377.71Z"/><path class="cls-2" d="M403.52,386.36a39.52,39.52,0,0,0-29.24,19.45l27,15.59a39.61,39.61,0,0,0,2.23-35Z"/><path class="cls-2" d="M403.52,369a39.61,39.61,0,0,0-2.23-35l-27,15.59A39.52,39.52,0,0,0,403.52,369Z"/><path class="cls-2" d="M398.51,377.71a39.45,39.45,0,0,0-31.46-15.6h0V393.3h0A39.47,39.47,0,0,0,398.51,377.71Z"/><path class="cls-2" d="M496.42,369a39.52,39.52,0,0,0,29.24-19.45l-27-15.59a39.61,39.61,0,0,0-2.23,35Z"/><path class="cls-2" d="M501.43,377.71a39.47,39.47,0,0,0,31.45,15.59V362.11A39.45,39.45,0,0,0,501.43,377.71Z"/><path class="cls-2" d="M496.42,386.36a39.61,39.61,0,0,0,2.23,35l27-15.59A39.51,39.51,0,0,0,496.42,386.36Z"/><path class="cls-2" d="M486.43,369a39.61,39.61,0,0,0-2.23-35l-27,15.59A39.52,39.52,0,0,0,486.43,369Z"/><path class="cls-2" d="M481.42,377.71A39.45,39.45,0,0,0,450,362.11h0V393.3h0A39.47,39.47,0,0,0,481.42,377.71Z"/><path class="cls-2" d="M579.33,369a39.52,39.52,0,0,0,29.24-19.45l-27-15.59a39.61,39.61,0,0,0-2.23,35Z"/><path class="cls-2" d="M579.33,386.36a39.61,39.61,0,0,0,2.23,35l27-15.59A39.51,39.51,0,0,0,579.33,386.36Z"/><path class="cls-2" d="M569.34,386.36a39.49,39.49,0,0,0-29.23,19.45l27,15.59a39.61,39.61,0,0,0,2.23-35Z"/><path class="cls-2" d="M569.34,369a39.61,39.61,0,0,0-2.23-35l-27,15.59A39.49,39.49,0,0,0,569.34,369Z"/><path class="cls-2" d="M564.33,377.71a39.45,39.45,0,0,0-31.45-15.6h0V393.3h0A39.47,39.47,0,0,0,564.33,377.71Z"/><path class="cls-2" d="M662.24,369a39.51,39.51,0,0,0,29.24-19.45l-27-15.59a39.61,39.61,0,0,0-2.23,35Z"/><path class="cls-2" d="M667.25,377.71A39.47,39.47,0,0,0,698.7,393.3V362.11A39.45,39.45,0,0,0,667.25,377.71Z"/><path class="cls-2" d="M652.26,386.36A39.51,39.51,0,0,0,623,405.81l27,15.59a39.69,39.69,0,0,0,2.23-35Z"/><path class="cls-2" d="M652.26,369A39.69,39.69,0,0,0,650,334l-27,15.59A39.51,39.51,0,0,0,652.26,369Z"/><path class="cls-2" d="M647.25,377.71a39.47,39.47,0,0,0-31.46-15.6h0V393.3h0A39.49,39.49,0,0,0,647.25,377.71Z"/><path class="cls-2" d="M745.15,386.36a39.69,39.69,0,0,0,2.23,35l27-15.59A39.51,39.51,0,0,0,745.15,386.36Z"/><path class="cls-2" d="M735.17,386.36a39.51,39.51,0,0,0-29.24,19.45l27,15.59a39.61,39.61,0,0,0,2.23-35Z"/><path class="cls-2" d="M735.17,369a39.61,39.61,0,0,0-2.23-35l-27,15.59A39.51,39.51,0,0,0,735.17,369Z"/><path class="cls-2" d="M486.43,242.76a39.54,39.54,0,0,0-29.24,19.44l27,15.6a39.61,39.61,0,0,0,2.23-35Z"/><path class="cls-2" d="M289.14,440.85a39.55,39.55,0,0,0,29.24-19.45l-27-15.59a39.61,39.61,0,0,0-2.23,35Z"/><path class="cls-2" d="M372.05,440.85a39.53,39.53,0,0,0,29.24-19.45l-27-15.59a39.61,39.61,0,0,0-2.23,35Z"/><path class="cls-2" d="M455,440.85A39.53,39.53,0,0,0,484.2,421.4l-27-15.59a39.61,39.61,0,0,0-2.23,35Z"/><path class="cls-2" d="M445,440.85a39.61,39.61,0,0,0-2.23-35l-27,15.59A39.53,39.53,0,0,0,445,440.85Z"/><path class="cls-2" d="M620.79,440.85A39.57,39.57,0,0,0,650,421.4l-27-15.59a39.61,39.61,0,0,0-2.23,35Z"/><path class="cls-2" d="M625.8,449.51a39.46,39.46,0,0,0,31.45,15.58V433.91A39.45,39.45,0,0,0,625.8,449.51Z"/><path class="cls-2" d="M620.79,458.16a39.61,39.61,0,0,0,2.23,35l27-15.59A39.52,39.52,0,0,0,620.79,458.16Z"/><path class="cls-2" d="M605.79,449.51a39.45,39.45,0,0,0-31.46-15.6h0v31.18h0A39.46,39.46,0,0,0,605.79,449.51Z"/><path class="cls-2" d="M703.7,458.16a39.61,39.61,0,0,0,2.23,35l27-15.59A39.51,39.51,0,0,0,703.7,458.16Z"/><path class="cls-2" d="M693.71,458.16a39.52,39.52,0,0,0-29.24,19.45l27,15.59a39.61,39.61,0,0,0,2.23-35Z"/><path class="cls-2" d="M693.71,440.85a39.61,39.61,0,0,0-2.23-35l-27,15.59A39.55,39.55,0,0,0,693.71,440.85Z"/><path class="cls-2" d="M688.7,449.51a39.45,39.45,0,0,0-31.45-15.6h0v31.18h0A39.46,39.46,0,0,0,688.7,449.51Z"/><path class="cls-2" d="M771.61,449.51a39.42,39.42,0,0,0-31.45-15.6h0v31.18h0A39.43,39.43,0,0,0,771.61,449.51Z"/><path class="cls-2" d="M579.33,530a39.63,39.63,0,0,0,2.23,35l27-15.6A39.51,39.51,0,0,0,579.33,530Z"/><path class="cls-2" d="M667.26,521.31a39.47,39.47,0,0,0,31.45,15.59V505.71A39.45,39.45,0,0,0,667.26,521.31Z"/><path class="cls-2" d="M652.26,530A39.51,39.51,0,0,0,623,549.41L650,565a39.63,39.63,0,0,0,2.23-35Z"/><path class="cls-2" d="M745.16,512.65A39.57,39.57,0,0,0,774.4,493.2l-27-15.59a39.61,39.61,0,0,0-2.23,35Z"/><path class="cls-2" d="M735.17,530a39.52,39.52,0,0,0-29.24,19.45l27,15.6a39.63,39.63,0,0,0,2.23-35Z"/><path class="cls-2" d="M735.17,512.65a39.61,39.61,0,0,0-2.23-35l-27,15.59A39.55,39.55,0,0,0,735.17,512.65Z"/><path class="cls-2" d="M828.07,530a39.63,39.63,0,0,0,2.23,35l27-15.6A39.51,39.51,0,0,0,828.07,530Z"/><path class="cls-2" d="M818.08,512.65a39.61,39.61,0,0,0-2.23-35l-27,15.59A39.55,39.55,0,0,0,818.08,512.65Z"/><path class="cls-2" d="M896,521.31a39.43,39.43,0,0,0-31.45-15.6h0V536.9h0A39.45,39.45,0,0,0,896,521.31Z"/><path class="cls-2" d="M771.62,593.11a39.45,39.45,0,0,0-31.46-15.6h0V608.7h0A39.47,39.47,0,0,0,771.62,593.11Z"/><path class="cls-2" d="M128.32,18.7a39.47,39.47,0,0,0,31.45,15.59V3.11A39.44,39.44,0,0,0,128.32,18.7Z"/></g></svg>