<svg xmlns="http://www.w3.org/2000/svg" viewBox="0 0 253 124"><defs><style>.cls-1{fill:#fff;}</style></defs><title>project-list-placeholder-icon</title><g id="Placeholder_for_Project_List_Logo-only_" data-name="Placeholder for Project List (Logo-only)"><g id="NBS_Logo" data-name="NBS Logo"><path id="path-1" class="cls-1" d="M230.35,51.8c0,4.56,4.5,5.16,9.65,6.76,6.33,2,12,4.74,12,12.63,0,8.06-6,12.92-14.9,12.92a29.47,29.47,0,0,1-13.25-3.26V73a24.78,24.78,0,0,0,13.32,4.45c4.26,0,7.33-1.84,7.33-5.81,0-4.75-4.49-5.4-10.06-7.06-6-1.83-11.59-4.56-11.59-12.21s5.8-12.45,14.43-12.45A26.36,26.36,0,0,1,250,43v7.59a24.93,24.93,0,0,0-12.77-4c-4,0-6.87,1.6-6.87,5.22ZM217.42,70.66a11.23,11.23,0,0,1-5.62,10.07c-3.07,1.89-7.1,2.73-13.24,2.73h-12V40.54h11.95c5.68,0,9.22.59,12.12,2.31a9.58,9.58,0,0,1,5,8.65c0,4.63-2.72,7.47-6.44,8.77v.12c5.26,1.3,8.16,4.92,8.16,10.25ZM205.54,48.31c-1.66-.95-3.66-1.19-7.45-1.19h-4V58.79h6.68c4.14,0,7.39-1.78,7.39-5.81a5,5,0,0,0-2.66-4.69ZM201,64.19h-6.92V76.87h4.79c4.44,0,6.86-.47,8.52-1.53a5.43,5.43,0,0,0,2.48-4.86c0-4.14-3.19-6.29-8.87-6.29Zm-43.7-1.41c-2.47-3.56-4.79-6.94-7.1-10.38l-.11.06c.11,4,.11,8.42.11,13v18h-6.82V40.54h6.66L164.5,61.23c2.47,3.56,4.78,6.94,7.1,10.38l.11-.06c-.11-4-.11-8.43-.11-13v-18h6.87V83.46h-6.71L157.34,62.77ZM72.71,62a54.15,54.15,0,0,1,43.21-21.47V83.47A54.16,54.16,0,0,1,72.71,62ZM65.82,50.07A54.65,54.65,0,0,1,68.89,1.81L106,23.29A54.33,54.33,0,0,1,65.82,50.07ZM11.92,100.7A54.36,54.36,0,0,1,52.1,73.92a54.33,54.33,0,0,1,4.21,21A54.27,54.27,0,0,1,49,122.19L11.93,100.71Zm0-77.41L49,1.82A54.24,54.24,0,0,1,56.31,29a54.28,54.28,0,0,1-4.21,21A54.34,54.34,0,0,1,11.92,23.29ZM45.22,62A54.18,54.18,0,0,1,2,83.47V40.53A54.16,54.16,0,0,1,45.22,62ZM106,100.7,68.88,122.19a54.66,54.66,0,0,1-3.06-48.27A54.34,54.34,0,0,1,106,100.7Z"/></g></g></svg>