<svg id="Placeholder_for_Project_List_Full_" data-name="Placeholder for Project List (Full)" xmlns="http://www.w3.org/2000/svg" viewBox="0 0 500 500"><defs><style>.cls-1{fill:#592d5e;}.cls-2{fill:#fff;}</style></defs><title>project-list-placeholder-full</title><g id="BG"><rect class="cls-1" width="500" height="500"/></g><g id="NBS_Logo" data-name="NBS Logo"><path id="path-1" class="cls-2" d="M353.35,239.8c0,4.56,4.5,5.16,9.65,6.76,6.33,2,12,4.74,12,12.63,0,8.06-6,12.92-14.9,12.92a29.47,29.47,0,0,1-13.25-3.26V261a24.78,24.78,0,0,0,13.32,4.45c4.26,0,7.33-1.84,7.33-5.81,0-4.75-4.49-5.4-10.06-7.06-6-1.83-11.59-4.56-11.59-12.21s5.8-12.45,14.43-12.45A26.36,26.36,0,0,1,373,231v7.59a24.93,24.93,0,0,0-12.77-4c-4,0-6.87,1.6-6.87,5.22Zm-12.93,18.85a11.23,11.23,0,0,1-5.62,10.07c-3.07,1.89-7.1,2.73-13.24,2.73h-12V228.54h11.95c5.68,0,9.22.59,12.12,2.31a9.58,9.58,0,0,1,5,8.65c0,4.63-2.72,7.47-6.44,8.77v.12c5.26,1.3,8.16,4.92,8.16,10.25Zm-11.89-22.35c-1.66-.95-3.66-1.19-7.45-1.19h-4v11.68h6.68c4.14,0,7.39-1.78,7.39-5.81a5,5,0,0,0-2.66-4.69ZM324,252.19h-6.92v12.69h4.79c4.44,0,6.86-.47,8.52-1.53a5.43,5.43,0,0,0,2.48-4.86c0-4.14-3.19-6.29-8.87-6.29Zm-43.7-1.41c-2.47-3.56-4.79-6.94-7.1-10.38l-.11.06c.11,4,.11,8.42.11,13v18h-6.82V228.54h6.66l14.42,20.68c2.47,3.56,4.78,6.94,7.1,10.38l.11-.06c-.11-4-.11-8.43-.11-13v-18h6.87v42.92h-6.71l-14.42-20.68ZM195.71,250a54.15,54.15,0,0,1,43.21-21.47v42.94A54.16,54.16,0,0,1,195.71,250Zm-6.89-11.93a54.65,54.65,0,0,1,3.07-48.26L229,211.29A54.33,54.33,0,0,1,188.82,238.07Zm-53.9,50.63a54.36,54.36,0,0,1,40.18-26.78A54.66,54.66,0,0,1,172,310.19l-37.11-21.48Zm0-77.41L172,189.82a54.65,54.65,0,0,1,3.06,48.26,54.34,54.34,0,0,1-40.18-26.78ZM168.22,250A54.18,54.18,0,0,1,125,271.47V228.53A54.16,54.16,0,0,1,168.22,250ZM229,288.7l-37.12,21.49a54.66,54.66,0,0,1-3.06-48.27A54.34,54.34,0,0,1,229,288.7Z"/></g></svg>