<?xml version="1.0" encoding="UTF-8" standalone="no"?>
<svg
   xmlns:dc="http://purl.org/dc/elements/1.1/"
   xmlns:cc="http://creativecommons.org/ns#"
   xmlns:rdf="http://www.w3.org/1999/02/22-rdf-syntax-ns#"
   xmlns:svg="http://www.w3.org/2000/svg"
   xmlns="http://www.w3.org/2000/svg"
   viewBox="0 0 894.81335 605.58667"
   height="605.58667"
   width="894.81335"
   xml:space="preserve"
   id="svg2"
   version="1.1"><metadata
     id="metadata8"><rdf:RDF><cc:Work
         rdf:about=""><dc:format>image/svg+xml</dc:format><dc:type
           rdf:resource="http://purl.org/dc/dcmitype/StillImage" /></cc:Work></rdf:RDF></metadata><defs
     id="defs6"><clipPath
       id="clipPath20"
       clipPathUnits="userSpaceOnUse"><path
         id="path18"
         d="M 0,0 H 6711 V 4541.9 H 0 Z" /></clipPath></defs><g
     transform="matrix(1.3333333,0,0,-1.3333333,0,605.58667)"
     id="g10"><g
       transform="scale(0.1)"
       id="g12"><g
         id="g14"><g
           clip-path="url(#clipPath20)"
           id="g16"><path
             id="path22"
             style="fill:#e3e6e5;fill-opacity:1;fill-rule:nonzero;stroke:none"
             d="m 2508.2,3886.44 c 54.16,-71.01 139.64,-116.9 235.86,-116.9 v 233.84 c -96.22,0 -181.7,-45.88 -235.86,-116.94" /><path
             id="path24"
             style="fill:#e3e6e5;fill-opacity:1;fill-rule:nonzero;stroke:none"
             d="m 2395.7,3821.56 c -93.81,-11.81 -173.94,-67.54 -219.27,-145.85 l 202.55,-117 c 25.25,43.63 39.67,94.23 39.67,148.22 0,40.64 -8.17,79.32 -22.95,114.63" /><path
             id="path26"
             style="fill:#e3e6e5;fill-opacity:1;fill-rule:nonzero;stroke:none"
             d="m 4336.13,3821.56 c -14.83,-35.31 -22.95,-73.99 -22.95,-114.63 0,-53.99 14.49,-104.59 39.67,-148.22 l 202.58,117 c -45.3,78.31 -125.49,134.04 -219.3,145.85" /><path
             id="path28"
             style="fill:#e3e6e5;fill-opacity:1;fill-rule:nonzero;stroke:none"
             d="m 4957.99,3821.56 c -14.84,-35.31 -22.96,-73.99 -22.96,-114.63 0,-53.99 14.45,-104.59 39.67,-148.22 l 202.57,117 c -45.31,78.31 -125.5,134.04 -219.28,145.85" /><path
             id="path30"
             style="fill:#e3e6e5;fill-opacity:1;fill-rule:nonzero;stroke:none"
             d="m 294.164,3283.04 c -14.793,-35.29 -22.953,-73.99 -22.953,-114.61 0,-53.99 14.488,-104.59 39.668,-148.2 l 202.605,116.96 c -45.304,78.32 -125.504,134.07 -219.32,145.85" /><path
             id="path32"
             style="fill:#e3e6e5;fill-opacity:1;fill-rule:nonzero;stroke:none"
             d="m 219.262,3412.92 c 14.777,35.24 22.98,73.96 22.98,114.56 0,53.96 -14.437,104.61 -39.687,148.23 L 0,3558.76 c 45.3242,-78.37 125.461,-134.02 219.262,-145.84" /><path
             id="path34"
             style="fill:#e3e6e5;fill-opacity:1;fill-rule:nonzero;stroke:none"
             d="m 916.02,3412.92 c 93.81,11.82 173.96,67.47 219.28,145.84 l -202.55,116.95 c -25.211,-43.62 -39.684,-94.27 -39.684,-148.23 0,-40.6 8.129,-79.32 22.954,-114.56" /><path
             id="path36"
             style="fill:#e3e6e5;fill-opacity:1;fill-rule:nonzero;stroke:none"
             d="m 953.609,3347.94 c 54.161,-71.04 139.631,-116.91 235.871,-116.91 v 233.85 c -96.24,0 -181.71,-45.87 -235.871,-116.94" /><path
             id="path38"
             style="fill:#e3e6e5;fill-opacity:1;fill-rule:nonzero;stroke:none"
             d="m 916.02,3283.04 c -14.825,-35.29 -22.954,-73.99 -22.954,-114.61 0,-53.99 14.473,-104.59 39.668,-148.2 l 202.566,116.96 c -45.29,78.32 -125.47,134.07 -219.28,145.85" /><path
             id="path40"
             style="fill:#e3e6e5;fill-opacity:1;fill-rule:nonzero;stroke:none"
             d="m 803.531,3347.94 c -54.121,71.07 -139.644,116.94 -235.902,116.94 v -233.85 c 96.258,0 181.781,45.87 235.902,116.91" /><path
             id="path42"
             style="fill:#e3e6e5;fill-opacity:1;fill-rule:nonzero;stroke:none"
             d="m 1537.87,3412.92 c 93.8,11.82 173.97,67.47 219.29,145.84 l -202.57,116.95 c -25.21,-43.62 -39.69,-94.27 -39.69,-148.23 0,-40.6 8.15,-79.32 22.97,-114.56" /><path
             id="path44"
             style="fill:#e3e6e5;fill-opacity:1;fill-rule:nonzero;stroke:none"
             d="m 1537.87,3283.04 c -14.82,-35.29 -22.97,-73.99 -22.97,-114.61 0,-53.99 14.48,-104.59 39.69,-148.2 l 202.57,116.96 c -45.3,78.32 -125.49,134.07 -219.29,145.85" /><path
             id="path46"
             style="fill:#e3e6e5;fill-opacity:1;fill-rule:nonzero;stroke:none"
             d="m 1462.96,3283.04 c -93.81,-11.78 -173.97,-67.53 -219.29,-145.85 l 202.56,-116.96 c 25.26,43.61 39.68,94.21 39.68,148.2 0,40.62 -8.2,79.32 -22.95,114.61" /><path
             id="path48"
             style="fill:#e3e6e5;fill-opacity:1;fill-rule:nonzero;stroke:none"
             d="m 3017.6,2744.59 c -93.83,-11.81 -173.96,-67.55 -219.29,-145.86 l 202.56,-116.98 c 25.22,43.61 39.68,94.22 39.68,148.21 0,40.65 -8.19,79.32 -22.95,114.63" /><path
             id="path50"
             style="fill:#e3e6e5;fill-opacity:1;fill-rule:nonzero;stroke:none"
             d="m 1462.96,3412.92 c 14.75,35.24 22.95,73.96 22.95,114.56 0,53.96 -14.42,104.61 -39.68,148.23 l -202.56,-116.95 c 45.32,-78.37 125.48,-134.02 219.29,-145.84" /><path
             id="path52"
             style="fill:#e3e6e5;fill-opacity:1;fill-rule:nonzero;stroke:none"
             d="m 2781.54,3283.04 c -14.82,-35.29 -22.95,-73.99 -22.95,-114.61 0,-53.99 14.48,-104.59 39.67,-148.2 l 202.57,116.96 c -45.29,78.32 -125.5,134.07 -219.29,145.85" /><path
             id="path54"
             style="fill:#e3e6e5;fill-opacity:1;fill-rule:nonzero;stroke:none"
             d="m 2706.65,3283.04 c -93.83,-11.78 -173.98,-67.53 -219.32,-145.85 l 202.57,-116.96 c 25.26,43.61 39.69,94.21 39.69,148.2 0,40.62 -8.18,79.32 -22.94,114.61" /><path
             id="path56"
             style="fill:#e3e6e5;fill-opacity:1;fill-rule:nonzero;stroke:none"
             d="m 2706.65,3412.92 c 14.76,35.24 22.94,73.96 22.94,114.56 0,53.96 -14.43,104.61 -39.69,148.23 l -202.57,-116.95 c 45.34,-78.37 125.49,-134.02 219.32,-145.84" /><path
             id="path58"
             style="fill:#e3e6e5;fill-opacity:1;fill-rule:nonzero;stroke:none"
             d="m 3403.37,3412.92 c 93.82,11.82 173.99,67.47 219.32,145.84 l -202.58,116.95 c -25.21,-43.62 -39.69,-94.27 -39.69,-148.23 0,-40.6 8.15,-79.32 22.95,-114.56" /><path
             id="path60"
             style="fill:#e3e6e5;fill-opacity:1;fill-rule:nonzero;stroke:none"
             d="m 3403.37,3283.04 c -14.8,-35.29 -22.95,-73.99 -22.95,-114.61 0,-53.99 14.48,-104.59 39.67,-148.2 l 202.6,116.96 c -45.31,78.32 -125.5,134.07 -219.32,145.85" /><path
             id="path62"
             style="fill:#e3e6e5;fill-opacity:1;fill-rule:nonzero;stroke:none"
             d="m 3328.49,3283.04 c -93.84,-11.78 -173.96,-67.53 -219.29,-145.85 l 202.55,-116.96 c 25.26,43.61 39.69,94.21 39.69,148.2 0,40.62 -8.2,79.32 -22.95,114.61" /><path
             id="path64"
             style="fill:#e3e6e5;fill-opacity:1;fill-rule:nonzero;stroke:none"
             d="m 3290.91,3347.94 c -54.15,71.07 -139.64,116.94 -235.91,116.94 v -233.85 c 96.27,0 181.76,45.87 235.91,116.91" /><path
             id="path66"
             style="fill:#e3e6e5;fill-opacity:1;fill-rule:nonzero;stroke:none"
             d="m 4025.21,3283.04 c -14.78,-35.29 -22.94,-73.99 -22.94,-114.61 0,-53.99 14.48,-104.59 39.66,-148.2 l 202.62,116.96 c -45.32,78.32 -125.51,134.07 -219.34,145.85" /><path
             id="path68"
             style="fill:#e3e6e5;fill-opacity:1;fill-rule:nonzero;stroke:none"
             d="m 3950.33,3283.04 c -93.83,-11.78 -173.98,-67.53 -219.28,-145.85 l 202.55,-116.96 c 25.23,43.61 39.68,94.21 39.68,148.2 0,40.62 -8.19,79.32 -22.95,114.61" /><path
             id="path70"
             style="fill:#e3e6e5;fill-opacity:1;fill-rule:nonzero;stroke:none"
             d="m 3950.33,3412.92 c 14.76,35.24 22.95,73.96 22.95,114.56 0,53.96 -14.45,104.61 -39.68,148.23 l -202.55,-116.95 c 45.3,-78.37 125.45,-134.02 219.28,-145.84" /><path
             id="path72"
             style="fill:#e3e6e5;fill-opacity:1;fill-rule:nonzero;stroke:none"
             d="m 1537.82,4360.08 c -14.82,-35.3 -22.94,-73.99 -22.94,-114.63 0,-53.99 14.48,-104.59 39.67,-148.21 l 202.57,116.99 c -45.3,78.31 -125.49,134.04 -219.3,145.85" /><path
             id="path74"
             style="fill:#e3e6e5;fill-opacity:1;fill-rule:nonzero;stroke:none"
             d="m 1152.01,3951.44 c 14.77,35.25 22.96,73.96 22.96,114.56 0,53.96 -14.45,104.61 -39.67,148.23 L 932.734,4097.29 c 45.309,-78.38 125.466,-134.03 219.276,-145.85" /><path
             id="path76"
             style="fill:#e3e6e5;fill-opacity:1;fill-rule:nonzero;stroke:none"
             d="m 3912.73,3347.94 c -54.13,71.07 -139.62,116.94 -235.9,116.94 v -233.85 c 96.28,0 181.77,45.87 235.9,116.91" /><path
             id="path78"
             style="fill:#e3e6e5;fill-opacity:1;fill-rule:nonzero;stroke:none"
             d="m 4684.65,3347.94 c 54.17,-71.04 139.65,-116.91 235.88,-116.91 v 233.85 c -96.23,0 -181.71,-45.87 -235.88,-116.94" /><path
             id="path80"
             style="fill:#e3e6e5;fill-opacity:1;fill-rule:nonzero;stroke:none"
             d="m 4572.16,3283.04 c -93.81,-11.78 -173.96,-67.53 -219.27,-145.85 l 202.54,-116.96 c 25.25,43.61 39.68,94.21 39.68,148.2 0,40.62 -8.16,79.32 -22.95,114.61" /><path
             id="path82"
             style="fill:#e3e6e5;fill-opacity:1;fill-rule:nonzero;stroke:none"
             d="m 4534.57,3347.94 c -54.13,71.07 -139.63,116.94 -235.89,116.94 v -233.85 c 96.26,0 181.76,45.87 235.89,116.91" /><path
             id="path84"
             style="fill:#e3e6e5;fill-opacity:1;fill-rule:nonzero;stroke:none"
             d="m 1152.05,2744.54 c -93.83,-11.81 -173.968,-67.52 -219.3,-145.85 L 1135.3,2481.7 c 25.27,43.64 39.7,94.22 39.7,148.23 0,40.63 -8.2,79.31 -22.95,114.61" /><path
             id="path86"
             style="fill:#e3e6e5;fill-opacity:1;fill-rule:nonzero;stroke:none"
             d="m 1152.05,2874.39 c 14.75,35.26 22.95,73.98 22.95,114.59 0,53.96 -14.43,104.59 -39.7,148.21 L 932.75,3020.24 c 45.332,-78.35 125.47,-134.02 219.3,-145.85" /><path
             id="path88"
             style="fill:#e3e6e5;fill-opacity:1;fill-rule:nonzero;stroke:none"
             d="m 1848.8,2874.39 c 93.79,11.83 173.95,67.5 219.3,145.85 l -202.58,116.95 c -25.22,-43.62 -39.69,-94.25 -39.69,-148.21 0,-40.61 8.13,-79.33 22.97,-114.59" /><path
             id="path90"
             style="fill:#e3e6e5;fill-opacity:1;fill-rule:nonzero;stroke:none"
             d="m 1886.36,2809.44 c 54.18,-71.04 139.65,-116.91 235.88,-116.91 v 233.86 c -96.23,0 -181.7,-45.88 -235.88,-116.95" /><path
             id="path92"
             style="fill:#e3e6e5;fill-opacity:1;fill-rule:nonzero;stroke:none"
             d="m 1848.8,2744.54 c -14.84,-35.3 -22.97,-73.98 -22.97,-114.61 0,-54.01 14.47,-104.59 39.67,-148.23 l 202.6,116.99 c -45.31,78.33 -125.51,134.04 -219.3,145.85" /><path
             id="path94"
             style="fill:#e3e6e5;fill-opacity:1;fill-rule:nonzero;stroke:none"
             d="m 1773.88,2874.39 c 14.78,35.26 22.97,73.98 22.97,114.59 0,53.96 -14.45,104.59 -39.69,148.21 l -202.55,-116.95 c 45.33,-78.35 125.45,-134.02 219.27,-145.85" /><path
             id="path96"
             style="fill:#e3e6e5;fill-opacity:1;fill-rule:nonzero;stroke:none"
             d="m 1736.32,2809.44 c -54.15,71.07 -139.65,116.95 -235.93,116.95 v -233.86 c 96.28,0 181.78,45.87 235.93,116.91" /><path
             id="path98"
             style="fill:#e3e6e5;fill-opacity:1;fill-rule:nonzero;stroke:none"
             d="m 2470.63,2874.39 c 93.82,11.83 173.97,67.5 219.3,145.85 l -202.6,116.95 c -25.2,-43.62 -39.65,-94.25 -39.65,-148.21 0,-40.61 8.13,-79.33 22.95,-114.59" /><path
             id="path100"
             style="fill:#e3e6e5;fill-opacity:1;fill-rule:nonzero;stroke:none"
             d="m 2508.22,2809.44 c 54.16,-71.04 139.64,-116.91 235.86,-116.91 v 233.86 c -96.22,0 -181.7,-45.88 -235.86,-116.95" /><path
             id="path102"
             style="fill:#e3e6e5;fill-opacity:1;fill-rule:nonzero;stroke:none"
             d="m 2470.63,2744.54 c -14.82,-35.3 -22.95,-73.98 -22.95,-114.61 0,-54.01 14.45,-104.59 39.65,-148.23 l 202.6,116.99 c -45.29,78.33 -125.48,134.04 -219.3,145.85" /><path
             id="path104"
             style="fill:#e3e6e5;fill-opacity:1;fill-rule:nonzero;stroke:none"
             d="m 2395.73,2744.54 c -93.82,-11.81 -173.97,-67.52 -219.27,-145.85 l 202.56,-116.99 c 25.22,43.64 39.67,94.22 39.67,148.23 0,40.63 -8.19,79.31 -22.96,114.61" /><path
             id="path106"
             style="fill:#e3e6e5;fill-opacity:1;fill-rule:nonzero;stroke:none"
             d="m 2395.73,2874.39 c 14.77,35.26 22.96,73.98 22.96,114.59 0,53.96 -14.45,104.59 -39.67,148.21 l -202.56,-116.95 c 45.3,-78.35 125.45,-134.02 219.27,-145.85" /><path
             id="path108"
             style="fill:#e3e6e5;fill-opacity:1;fill-rule:nonzero;stroke:none"
             d="m 3130.05,2809.44 c 54.16,-71.04 139.64,-116.91 235.86,-116.91 v 233.86 c -96.22,0 -181.7,-45.88 -235.86,-116.95" /><path
             id="path110"
             style="fill:#e3e6e5;fill-opacity:1;fill-rule:nonzero;stroke:none"
             d="m 3092.47,2744.54 c -14.81,-35.3 -22.94,-73.98 -22.94,-114.61 0,-54.01 14.45,-104.59 39.65,-148.23 l 202.59,116.99 c -45.3,78.33 -125.5,134.04 -219.3,145.85" /><path
             id="path112"
             style="fill:#e3e6e5;fill-opacity:1;fill-rule:nonzero;stroke:none"
             d="m 3017.57,2874.39 c 14.75,35.26 22.96,73.98 22.96,114.59 0,53.96 -14.44,104.59 -39.7,148.21 l -202.54,-116.95 c 45.32,-78.35 125.46,-134.02 219.28,-145.85" /><path
             id="path114"
             style="fill:#e3e6e5;fill-opacity:1;fill-rule:nonzero;stroke:none"
             d="m 2979.99,2809.44 c -54.13,71.07 -139.64,116.95 -235.91,116.95 v -233.86 c 96.27,0 181.78,45.87 235.91,116.91" /><path
             id="path116"
             style="fill:#e3e6e5;fill-opacity:1;fill-rule:nonzero;stroke:none"
             d="m 3639.41,2874.39 c 14.76,35.26 22.95,73.98 22.95,114.59 0,53.96 -14.44,104.59 -39.67,148.21 l -202.56,-116.95 c 45.33,-78.35 125.47,-134.02 219.28,-145.85" /><path
             id="path118"
             style="fill:#e3e6e5;fill-opacity:1;fill-rule:nonzero;stroke:none"
             d="m 3601.83,2809.44 c -54.14,71.07 -139.63,116.95 -235.92,116.95 v -233.86 c 96.29,0 181.78,45.87 235.92,116.91" /><path
             id="path120"
             style="fill:#e3e6e5;fill-opacity:1;fill-rule:nonzero;stroke:none"
             d="m 3751.88,2809.44 c 54.19,-71.04 139.65,-116.91 235.89,-116.91 v 233.86 c -96.24,0 -181.7,-45.88 -235.89,-116.95" /><path
             id="path122"
             style="fill:#e3e6e5;fill-opacity:1;fill-rule:nonzero;stroke:none"
             d="m 3714.31,2744.54 c -14.81,-35.3 -22.94,-73.98 -22.94,-114.61 0,-54.01 14.46,-104.59 39.66,-148.23 l 202.57,116.99 c -45.27,78.33 -125.48,134.04 -219.29,145.85" /><path
             id="path124"
             style="fill:#e3e6e5;fill-opacity:1;fill-rule:nonzero;stroke:none"
             d="m 2197.29,2270.93 c 54.18,-71.04 139.66,-116.91 235.89,-116.91 v 233.85 c -96.23,0 -181.71,-45.89 -235.89,-116.94" /><path
             id="path126"
             style="fill:#e3e6e5;fill-opacity:1;fill-rule:nonzero;stroke:none"
             d="m 2084.81,2206.05 c -93.8,-11.8 -173.96,-67.53 -219.27,-145.85 l 202.56,-117 c 25.23,43.62 39.66,94.22 39.66,148.21 0,40.65 -8.18,79.34 -22.95,114.64" /><path
             id="path128"
             style="fill:#e3e6e5;fill-opacity:1;fill-rule:nonzero;stroke:none"
             d="m 2781.56,2335.89 c 93.8,11.84 173.98,67.5 219.31,145.86 l -202.58,116.94 c -25.22,-43.62 -39.7,-94.25 -39.7,-148.2 0,-40.62 8.15,-79.34 22.97,-114.6" /><path
             id="path130"
             style="fill:#e3e6e5;fill-opacity:1;fill-rule:nonzero;stroke:none"
             d="m 2819.15,2270.93 c 54.18,-71.04 139.63,-116.91 235.85,-116.91 v 233.85 c -96.22,0 -181.67,-45.89 -235.85,-116.94" /><path
             id="path132"
             style="fill:#e3e6e5;fill-opacity:1;fill-rule:nonzero;stroke:none"
             d="m 2781.56,2206.05 c -14.82,-35.3 -22.97,-73.99 -22.97,-114.64 0,-53.99 14.48,-104.59 39.7,-148.21 l 202.58,117 c -45.32,78.32 -125.51,134.05 -219.31,145.85" /><path
             id="path134"
             style="fill:#e3e6e5;fill-opacity:1;fill-rule:nonzero;stroke:none"
             d="m 2706.67,2206.05 c -93.81,-11.8 -173.97,-67.53 -219.29,-145.85 l 202.55,-117 c 25.26,43.62 39.69,94.22 39.69,148.21 0,40.65 -8.21,79.34 -22.95,114.64" /><path
             id="path136"
             style="fill:#e3e6e5;fill-opacity:1;fill-rule:nonzero;stroke:none"
             d="m 2706.67,2335.89 c 14.74,35.26 22.95,73.98 22.95,114.6 0,53.95 -14.43,104.58 -39.69,148.2 l -202.55,-116.94 c 45.32,-78.36 125.48,-134.02 219.29,-145.86" /><path
             id="path138"
             style="fill:#e3e6e5;fill-opacity:1;fill-rule:nonzero;stroke:none"
             d="m 3403.37,2335.89 c 93.83,11.84 173.99,67.5 219.34,145.86 l -202.58,116.94 c -25.21,-43.62 -39.69,-94.25 -39.69,-148.2 0,-40.62 8.16,-79.34 22.93,-114.6" /><path
             id="path140"
             style="fill:#e3e6e5;fill-opacity:1;fill-rule:nonzero;stroke:none"
             d="m 3440.99,2270.93 c 54.14,-71.04 139.63,-116.91 235.86,-116.91 v 233.85 c -96.23,0 -181.72,-45.89 -235.86,-116.94" /><path
             id="path142"
             style="fill:#e3e6e5;fill-opacity:1;fill-rule:nonzero;stroke:none"
             d="m 3403.37,2206.05 c -14.77,-35.3 -22.93,-73.99 -22.93,-114.64 0,-53.99 14.48,-104.59 39.67,-148.21 l 202.6,117 c -45.31,78.32 -125.51,134.05 -219.34,145.85" /><path
             id="path144"
             style="fill:#e3e6e5;fill-opacity:1;fill-rule:nonzero;stroke:none"
             d="m 3328.49,2206.05 c -93.81,-11.8 -173.96,-67.53 -219.27,-145.85 l 202.55,-117 c 25.26,43.62 39.7,94.22 39.7,148.21 0,40.65 -8.2,79.34 -22.98,114.64" /><path
             id="path146"
             style="fill:#e3e6e5;fill-opacity:1;fill-rule:nonzero;stroke:none"
             d="m 3328.49,2335.89 c 14.78,35.26 22.98,73.98 22.98,114.6 0,53.95 -14.44,104.58 -39.7,148.2 l -202.55,-116.94 c 45.31,-78.36 125.46,-134.02 219.27,-145.86" /><path
             id="path148"
             style="fill:#e3e6e5;fill-opacity:1;fill-rule:nonzero;stroke:none"
             d="m 3290.92,2270.93 c -54.14,71.05 -139.64,116.94 -235.92,116.94 v -233.85 c 96.28,0 181.78,45.87 235.92,116.91" /><path
             id="path150"
             style="fill:#e3e6e5;fill-opacity:1;fill-rule:nonzero;stroke:none"
             d="m 4062.83,2270.93 c 54.16,-71.04 139.64,-116.91 235.88,-116.91 v 233.85 c -96.24,0 -181.72,-45.89 -235.88,-116.94" /><path
             id="path152"
             style="fill:#e3e6e5;fill-opacity:1;fill-rule:nonzero;stroke:none"
             d="m 4025.23,2206.05 c -14.8,-35.3 -22.93,-73.99 -22.93,-114.64 0,-53.99 14.47,-104.59 39.67,-148.21 l 202.58,117 c -45.32,78.32 -125.51,134.05 -219.32,145.85" /><path
             id="path154"
             style="fill:#e3e6e5;fill-opacity:1;fill-rule:nonzero;stroke:none"
             d="m 3950.34,2206.05 c -93.8,-11.8 -173.97,-67.53 -219.29,-145.85 l 202.55,-117 c 25.26,43.62 39.68,94.22 39.68,148.21 0,40.65 -8.17,79.34 -22.94,114.64" /><path
             id="path156"
             style="fill:#e3e6e5;fill-opacity:1;fill-rule:nonzero;stroke:none"
             d="m 3950.34,2335.89 c 14.77,35.26 22.94,73.98 22.94,114.6 0,53.95 -14.42,104.58 -39.68,148.2 l -202.55,-116.94 c 45.32,-78.36 125.49,-134.02 219.29,-145.86" /><path
             id="path158"
             style="fill:#e3e6e5;fill-opacity:1;fill-rule:nonzero;stroke:none"
             d="m 3912.75,2270.93 c -54.1,71.05 -139.64,116.94 -235.9,116.94 v -233.85 c 96.26,0 181.8,45.87 235.9,116.91" /><path
             id="path160"
             style="fill:#e3e6e5;fill-opacity:1;fill-rule:nonzero;stroke:none"
             d="m 4647.1,2335.89 c 93.77,11.84 173.95,67.5 219.29,145.86 l -202.57,116.94 c -25.21,-43.62 -39.7,-94.25 -39.7,-148.2 0,-40.62 8.16,-79.34 22.98,-114.6" /><path
             id="path162"
             style="fill:#e3e6e5;fill-opacity:1;fill-rule:nonzero;stroke:none"
             d="m 953.574,4424.95 c 54.166,-71.03 139.646,-116.91 235.876,-116.91 v 233.86 c -96.23,0 -181.71,-45.87 -235.876,-116.95" /><path
             id="path164"
             style="fill:#e3e6e5;fill-opacity:1;fill-rule:nonzero;stroke:none"
             d="m 4572.18,2206.05 c -93.83,-11.8 -173.96,-67.53 -219.27,-145.85 l 202.55,-117 c 25.26,43.62 39.67,94.22 39.67,148.21 0,40.65 -8.18,79.34 -22.95,114.64" /><path
             id="path166"
             style="fill:#e3e6e5;fill-opacity:1;fill-rule:nonzero;stroke:none"
             d="m 4572.18,2335.89 c 14.77,35.26 22.95,73.98 22.95,114.6 0,53.95 -14.41,104.58 -39.67,148.2 l -202.55,-116.94 c 45.31,-78.36 125.44,-134.02 219.27,-145.86" /><path
             id="path168"
             style="fill:#e3e6e5;fill-opacity:1;fill-rule:nonzero;stroke:none"
             d="m 5306.51,2270.93 c 54.17,-71.04 139.65,-116.91 235.86,-116.91 v 233.85 c -96.21,0 -181.69,-45.89 -235.86,-116.94" /><path
             id="path170"
             style="fill:#e3e6e5;fill-opacity:1;fill-rule:nonzero;stroke:none"
             d="m 5194.01,2206.05 c -93.8,-11.8 -173.97,-67.53 -219.26,-145.85 l 202.56,-117 c 25.23,43.62 39.67,94.22 39.67,148.21 0,40.65 -8.19,79.34 -22.97,114.64" /><path
             id="path172"
             style="fill:#e3e6e5;fill-opacity:1;fill-rule:nonzero;stroke:none"
             d="m 5194.01,2335.89 c 14.78,35.26 22.97,73.98 22.97,114.6 0,53.95 -14.44,104.58 -39.67,148.2 l -202.56,-116.94 c 45.29,-78.36 125.46,-134.02 219.26,-145.86" /><path
             id="path174"
             style="fill:#e3e6e5;fill-opacity:1;fill-rule:nonzero;stroke:none"
             d="m 1848.8,1797.38 c 93.81,11.85 173.97,67.48 219.3,145.87 l -202.56,116.95 c -25.22,-43.64 -39.68,-94.28 -39.68,-148.21 0,-40.61 8.12,-79.33 22.94,-114.61" /><path
             id="path176"
             style="fill:#e3e6e5;fill-opacity:1;fill-rule:nonzero;stroke:none"
             d="m 1848.8,1667.53 c -14.82,-35.28 -22.94,-73.97 -22.94,-114.62 0,-53.98 14.46,-104.59 39.66,-148.2 l 202.58,116.96 c -45.29,78.33 -125.49,134.07 -219.3,145.86" /><path
             id="path178"
             style="fill:#e3e6e5;fill-opacity:1;fill-rule:nonzero;stroke:none"
             d="m 1773.9,1797.38 c 14.78,35.28 22.95,74 22.95,114.61 0,53.93 -14.43,104.57 -39.67,148.21 l -202.55,-116.95 c 45.31,-78.39 125.46,-134.02 219.27,-145.87" /><path
             id="path180"
             style="fill:#e3e6e5;fill-opacity:1;fill-rule:nonzero;stroke:none"
             d="m 2395.74,1797.38 c 14.76,35.28 22.96,74 22.96,114.61 0,53.93 -14.43,104.57 -39.68,148.21 l -202.56,-116.95 c 45.33,-78.39 125.45,-134.02 219.28,-145.87" /><path
             id="path182"
             style="fill:#e3e6e5;fill-opacity:1;fill-rule:nonzero;stroke:none"
             d="m 3092.51,1797.38 c 93.79,11.85 173.94,67.48 219.29,145.87 l -202.58,116.95 c -25.22,-43.64 -39.69,-94.28 -39.69,-148.21 0,-40.61 8.16,-79.33 22.98,-114.61" /><path
             id="path184"
             style="fill:#e3e6e5;fill-opacity:1;fill-rule:nonzero;stroke:none"
             d="m 3130.07,1732.42 c 54.16,-71.04 139.64,-116.92 235.87,-116.92 v 233.88 c -96.23,0 -181.71,-45.88 -235.87,-116.96" /><path
             id="path186"
             style="fill:#e3e6e5;fill-opacity:1;fill-rule:nonzero;stroke:none"
             d="m 3017.6,1667.53 c -93.83,-11.79 -173.96,-67.53 -219.29,-145.86 l 202.56,-116.96 c 25.22,43.61 39.68,94.22 39.68,148.2 0,40.65 -8.19,79.34 -22.95,114.62" /><path
             id="path188"
             style="fill:#e3e6e5;fill-opacity:1;fill-rule:nonzero;stroke:none"
             d="m 3017.6,1797.38 c 14.76,35.28 22.95,74 22.95,114.61 0,53.93 -14.46,104.57 -39.68,148.21 l -202.56,-116.95 c 45.33,-78.39 125.46,-134.02 219.29,-145.87" /><path
             id="path190"
             style="fill:#e3e6e5;fill-opacity:1;fill-rule:nonzero;stroke:none"
             d="m 2980.02,1732.42 c -54.15,71.08 -139.65,116.96 -235.94,116.96 V 1615.5 c 96.29,0 181.79,45.88 235.94,116.92" /><path
             id="path192"
             style="fill:#e3e6e5;fill-opacity:1;fill-rule:nonzero;stroke:none"
             d="m 3714.32,1797.38 c 93.82,11.85 173.98,67.48 219.31,145.87 l -202.58,116.95 c -25.22,-43.64 -39.68,-94.28 -39.68,-148.21 0,-40.61 8.14,-79.33 22.95,-114.61" /><path
             id="path194"
             style="fill:#e3e6e5;fill-opacity:1;fill-rule:nonzero;stroke:none"
             d="m 3751.93,1732.42 c 54.16,-71.04 139.65,-116.92 235.87,-116.92 v 233.88 c -96.22,0 -181.71,-45.88 -235.87,-116.96" /><path
             id="path196"
             style="fill:#e3e6e5;fill-opacity:1;fill-rule:nonzero;stroke:none"
             d="m 3714.32,1667.53 c -14.81,-35.28 -22.95,-73.97 -22.95,-114.62 0,-53.98 14.46,-104.59 39.68,-148.2 l 202.58,116.96 c -45.28,78.33 -125.49,134.07 -219.31,145.86" /><path
             id="path198"
             style="fill:#e3e6e5;fill-opacity:1;fill-rule:nonzero;stroke:none"
             d="m 3639.43,1797.38 c 14.76,35.28 22.95,74 22.95,114.61 0,53.93 -14.44,104.57 -39.67,148.21 l -202.56,-116.95 c 45.31,-78.39 125.45,-134.02 219.28,-145.87" /><path
             id="path200"
             style="fill:#e3e6e5;fill-opacity:1;fill-rule:nonzero;stroke:none"
             d="m 3601.83,1732.42 c -54.12,71.08 -139.63,116.96 -235.89,116.96 V 1615.5 c 96.26,0 181.77,45.88 235.89,116.92" /><path
             id="path202"
             style="fill:#e3e6e5;fill-opacity:1;fill-rule:nonzero;stroke:none"
             d="m 4336.17,1797.38 c 93.81,11.85 173.96,67.48 219.31,145.87 l -202.57,116.95 c -25.22,-43.64 -39.69,-94.28 -39.69,-148.21 0,-40.61 8.14,-79.33 22.95,-114.61" /><path
             id="path204"
             style="fill:#e3e6e5;fill-opacity:1;fill-rule:nonzero;stroke:none"
             d="m 4336.17,1667.53 c -14.81,-35.28 -22.95,-73.97 -22.95,-114.62 0,-53.98 14.47,-104.59 39.67,-148.2 l 202.59,116.96 c -45.31,78.33 -125.5,134.07 -219.31,145.86" /><path
             id="path206"
             style="fill:#e3e6e5;fill-opacity:1;fill-rule:nonzero;stroke:none"
             d="m 4261.26,1667.53 c -93.82,-11.79 -173.95,-67.53 -219.27,-145.86 l 202.56,-116.96 c 25.25,43.61 39.66,94.22 39.66,148.2 0,40.65 -8.18,79.34 -22.95,114.62" /><path
             id="path208"
             style="fill:#e3e6e5;fill-opacity:1;fill-rule:nonzero;stroke:none"
             d="m 4261.26,1797.38 c 14.77,35.28 22.95,74 22.95,114.61 0,53.93 -14.41,104.57 -39.66,148.21 l -202.56,-116.95 c 45.32,-78.39 125.45,-134.02 219.27,-145.87" /><path
             id="path210"
             style="fill:#e3e6e5;fill-opacity:1;fill-rule:nonzero;stroke:none"
             d="m 4223.69,1732.42 c -54.14,71.08 -139.65,116.96 -235.89,116.96 V 1615.5 c 96.24,0 181.75,45.88 235.89,116.92" /><path
             id="path212"
             style="fill:#e3e6e5;fill-opacity:1;fill-rule:nonzero;stroke:none"
             d="m 4958.01,1797.38 c 93.79,11.85 173.95,67.48 219.3,145.87 l -202.56,116.95 c -25.2,-43.64 -39.7,-94.28 -39.7,-148.21 0,-40.61 8.13,-79.33 22.96,-114.61" /><path
             id="path214"
             style="fill:#e3e6e5;fill-opacity:1;fill-rule:nonzero;stroke:none"
             d="m 4995.59,1732.42 c 54.16,-71.04 139.65,-116.92 235.88,-116.92 v 233.88 c -96.23,0 -181.72,-45.88 -235.88,-116.96" /><path
             id="path216"
             style="fill:#e3e6e5;fill-opacity:1;fill-rule:nonzero;stroke:none"
             d="m 4883.11,1667.53 c -93.82,-11.79 -173.94,-67.53 -219.28,-145.86 l 202.56,-116.96 c 25.22,43.61 39.66,94.22 39.66,148.2 0,40.65 -8.17,79.34 -22.94,114.62" /><path
             id="path218"
             style="fill:#e3e6e5;fill-opacity:1;fill-rule:nonzero;stroke:none"
             d="m 4883.11,1797.38 c 14.77,35.28 22.94,74 22.94,114.61 0,53.93 -14.44,104.57 -39.66,148.21 l -202.56,-116.95 c 45.34,-78.39 125.46,-134.02 219.28,-145.87" /><path
             id="path220"
             style="fill:#e3e6e5;fill-opacity:1;fill-rule:nonzero;stroke:none"
             d="m 4845.54,1732.42 c -54.16,71.08 -139.65,116.96 -235.92,116.96 V 1615.5 c 96.27,0 181.76,45.88 235.92,116.92" /><path
             id="path222"
             style="fill:#e3e6e5;fill-opacity:1;fill-rule:nonzero;stroke:none"
             d="m 5579.85,1667.53 c -14.82,-35.28 -22.94,-73.97 -22.94,-114.62 0,-53.98 14.44,-104.59 39.66,-148.2 l 202.58,116.96 c -45.32,78.33 -125.49,134.07 -219.3,145.86" /><path
             id="path224"
             style="fill:#e3e6e5;fill-opacity:1;fill-rule:nonzero;stroke:none"
             d="M 5504.95,1667.53 C 5411.14,1655.74 5331,1600 5285.69,1521.67 l 202.56,-116.96 c 25.21,43.61 39.66,94.22 39.66,148.2 0,40.65 -8.21,79.34 -22.96,114.62" /><path
             id="path226"
             style="fill:#e3e6e5;fill-opacity:1;fill-rule:nonzero;stroke:none"
             d="m 5504.95,1797.38 c 14.75,35.28 22.96,74 22.96,114.61 0,53.93 -14.45,104.57 -39.66,148.21 l -202.56,-116.95 c 45.31,-78.39 125.45,-134.02 219.26,-145.87" /><path
             id="path228"
             style="fill:#e3e6e5;fill-opacity:1;fill-rule:nonzero;stroke:none"
             d="m 3639.41,2744.54 c -93.81,-11.81 -173.95,-67.52 -219.28,-145.85 l 202.56,-116.99 c 25.23,43.64 39.67,94.22 39.67,148.23 0,40.63 -8.19,79.31 -22.95,114.61" /><path
             id="path230"
             style="fill:#e3e6e5;fill-opacity:1;fill-rule:nonzero;stroke:none"
             d="m 2159.74,1258.87 c 93.81,11.85 173.96,67.5 219.29,145.86 l -202.57,116.94 c -25.21,-43.62 -39.68,-94.25 -39.68,-148.19 0,-40.61 8.14,-79.34 22.96,-114.61" /><path
             id="path232"
             style="fill:#e3e6e5;fill-opacity:1;fill-rule:nonzero;stroke:none"
             d="m 2781.56,1258.87 c 93.83,11.85 173.98,67.5 219.32,145.86 l -202.57,116.94 c -25.21,-43.62 -39.69,-94.25 -39.69,-148.19 0,-40.61 8.15,-79.34 22.94,-114.61" /><path
             id="path234"
             style="fill:#e3e6e5;fill-opacity:1;fill-rule:nonzero;stroke:none"
             d="m 3403.41,1258.87 c 93.83,11.85 173.97,67.5 219.3,145.86 l -202.56,116.94 c -25.2,-43.62 -39.68,-94.25 -39.68,-148.19 0,-40.61 8.13,-79.34 22.94,-114.61" /><path
             id="path236"
             style="fill:#e3e6e5;fill-opacity:1;fill-rule:nonzero;stroke:none"
             d="m 3328.52,1258.87 c 14.78,35.27 22.95,74 22.95,114.61 0,53.94 -14.44,104.57 -39.67,148.19 l -202.56,-116.94 c 45.31,-78.36 125.47,-134.01 219.28,-145.86" /><path
             id="path238"
             style="fill:#e3e6e5;fill-opacity:1;fill-rule:nonzero;stroke:none"
             d="m 4647.1,1258.87 c 93.79,11.85 173.95,67.5 219.31,145.86 l -202.58,116.94 c -25.21,-43.62 -39.69,-94.25 -39.69,-148.19 0,-40.61 8.15,-79.34 22.96,-114.61" /><path
             id="path240"
             style="fill:#e3e6e5;fill-opacity:1;fill-rule:nonzero;stroke:none"
             d="m 4684.66,1193.91 c 54.18,-71.02 139.66,-116.9 235.89,-116.9 v 233.85 c -96.23,0 -181.71,-45.86 -235.89,-116.95" /><path
             id="path242"
             style="fill:#e3e6e5;fill-opacity:1;fill-rule:nonzero;stroke:none"
             d="m 4647.1,1129.02 c -14.81,-35.27 -22.96,-73.98 -22.96,-114.61 0,-54.019 14.48,-104.601 39.68,-148.199 l 202.59,116.949 c -45.29,78.32 -125.52,134.07 -219.31,145.86" /><path
             id="path244"
             style="fill:#e3e6e5;fill-opacity:1;fill-rule:nonzero;stroke:none"
             d="m 4534.62,1193.91 c -54.15,71.09 -139.64,116.95 -235.91,116.95 v -233.85 c 96.27,0 181.76,45.88 235.91,116.9" /><path
             id="path246"
             style="fill:#e3e6e5;fill-opacity:1;fill-rule:nonzero;stroke:none"
             d="m 5268.95,1129.02 c -14.82,-35.27 -22.97,-73.98 -22.97,-114.61 0,-54.019 14.49,-104.601 39.67,-148.199 l 202.6,116.949 c -45.32,78.32 -125.49,134.07 -219.3,145.86" /><path
             id="path248"
             style="fill:#e3e6e5;fill-opacity:1;fill-rule:nonzero;stroke:none"
             d="m 5194.04,1129.02 c -93.81,-11.79 -173.96,-67.54 -219.29,-145.86 l 202.56,-116.949 c 25.25,43.598 39.67,94.18 39.67,148.199 0,40.63 -8.17,79.34 -22.94,114.61" /><path
             id="path250"
             style="fill:#e3e6e5;fill-opacity:1;fill-rule:nonzero;stroke:none"
             d="m 5194.04,1258.87 c 14.77,35.27 22.94,74 22.94,114.61 0,53.94 -14.42,104.57 -39.67,148.19 l -202.56,-116.94 c 45.33,-78.36 125.48,-134.01 219.29,-145.86" /><path
             id="path252"
             style="fill:#e3e6e5;fill-opacity:1;fill-rule:nonzero;stroke:none"
             d="m 5156.45,1193.91 c -54.12,71.09 -139.65,116.95 -235.9,116.95 v -233.85 c 96.25,0 181.78,45.88 235.9,116.9" /><path
             id="path254"
             style="fill:#e3e6e5;fill-opacity:1;fill-rule:nonzero;stroke:none"
             d="m 5778.29,1193.91 c -54.12,71.09 -139.63,116.95 -235.88,116.95 v -233.85 c 96.25,0 181.76,45.88 235.88,116.9" /><path
             id="path256"
             style="fill:#e3e6e5;fill-opacity:1;fill-rule:nonzero;stroke:none"
             d="m 4336.21,590.531 c -14.83,-35.312 -22.99,-73.992 -22.99,-114.609 0,-54.024 14.49,-104.633 39.69,-148.242 l 202.59,116.992 c -45.31,78.316 -125.51,134.039 -219.29,145.859" /><path
             id="path258"
             style="fill:#e3e6e5;fill-opacity:1;fill-rule:nonzero;stroke:none"
             d="m 4995.61,655.41 c 54.18,-71.012 139.65,-116.91 235.88,-116.91 v 233.859 c -96.23,0 -181.7,-45.879 -235.88,-116.949" /><path
             id="path260"
             style="fill:#e3e6e5;fill-opacity:1;fill-rule:nonzero;stroke:none"
             d="m 4883.11,590.531 c -93.8,-11.82 -173.94,-67.543 -219.26,-145.859 L 4866.41,327.68 c 25.24,43.609 39.67,94.218 39.67,148.242 0,40.617 -8.17,79.297 -22.97,114.609" /><path
             id="path262"
             style="fill:#e3e6e5;fill-opacity:1;fill-rule:nonzero;stroke:none"
             d="m 5579.89,720.371 c 93.77,11.84 173.94,67.5 219.29,145.859 L 5596.6,983.16 c -25.21,-43.59 -39.68,-94.23 -39.68,-148.199 0,-40.602 8.13,-79.332 22.97,-114.59" /><path
             id="path264"
             style="fill:#e3e6e5;fill-opacity:1;fill-rule:nonzero;stroke:none"
             d="m 5504.97,590.531 c -93.83,-11.82 -173.95,-67.543 -219.28,-145.859 L 5488.25,327.68 c 25.23,43.609 39.68,94.218 39.68,148.242 0,40.617 -8.2,79.297 -22.96,114.609" /><path
             id="path266"
             style="fill:#e3e6e5;fill-opacity:1;fill-rule:nonzero;stroke:none"
             d="m 5504.97,720.371 c 14.76,35.258 22.96,73.988 22.96,114.59 0,53.969 -14.45,104.609 -39.68,148.199 L 5285.69,866.23 c 45.33,-78.359 125.45,-134.019 219.28,-145.859" /><path
             id="path268"
             style="fill:#e3e6e5;fill-opacity:1;fill-rule:nonzero;stroke:none"
             d="m 6201.74,590.531 c -14.85,-35.312 -22.99,-73.992 -22.99,-114.609 0,-54.024 14.48,-104.633 39.67,-148.242 l 202.61,116.992 c -45.31,78.316 -125.51,134.039 -219.29,145.859" /><path
             id="path270"
             style="fill:#e3e6e5;fill-opacity:1;fill-rule:nonzero;stroke:none"
             d="m 6126.8,720.371 c 14.78,35.258 22.95,73.988 22.95,114.59 0,53.969 -14.43,104.609 -39.67,148.199 L 5907.52,866.23 c 45.36,-78.359 125.47,-134.019 219.28,-145.859" /><path
             id="path272"
             style="fill:#e3e6e5;fill-opacity:1;fill-rule:nonzero;stroke:none"
             d="m 6711.06,655.41 c -54.1,71.07 -139.63,116.949 -235.9,116.949 V 538.5 c 96.27,0 181.8,45.898 235.9,116.91" /><path
             id="path274"
             style="fill:#e3e6e5;fill-opacity:1;fill-rule:nonzero;stroke:none"
             d="m 5778.33,116.91 c -54.15,71.059 -139.64,116.961 -235.92,116.961 V 0 c 96.28,0 181.77,45.8789 235.92,116.91" /></g></g></g></g></svg>
