<svg style="position: absolute; width: 0; height: 0; overflow: hidden;" version="1.1" xmlns="http://www.w3.org/2000/svg" xmlns:xlink="http://www.w3.org/1999/xlink">
  <defs>
    <svg id="symbol" viewBox="0 0 31 32">
      <title>nbs-symbol</title>
      <path d="M17.911-0c-1.238 2.145-1.948 4.634-1.948 7.289 0 1.998 0.401 3.901 1.126 5.634 4.602-0.583 8.534-3.319 10.757-7.172l-9.935-5.752zM12.595 0.001l-9.938 5.75c2.225 3.852 6.156 6.589 10.757 7.172 0.726-1.733 1.127-3.636 1.127-5.633 0-2.657-0.708-5.146-1.947-7.289zM0 10.368v11.498c4.722 0 8.916-2.256 11.572-5.749-2.657-3.495-6.85-5.749-11.572-5.749zM30.505 10.368c-4.722 0-8.916 2.255-11.571 5.749 2.655 3.493 6.849 5.749 11.571 5.749v-11.498zM13.415 19.309c-4.602 0.583-8.532 3.321-10.757 7.172v0.001l9.535 5.518h0.528c1.158-2.092 1.822-4.495 1.822-7.057 0-1.997-0.401-3.9-1.127-5.634zM17.090 19.309c-0.726 1.734-1.127 3.637-1.127 5.635 0 2.56 0.666 4.964 1.822 7.055h0.528l9.535-5.519c-2.223-3.851-6.155-6.589-10.757-7.172z"></path>
    </svg>
    <svg id="logo" viewBox="0 0 66 32">
      <title>nbs-logo</title>
      <path d="M60.706 13.289c0 1.212 1.196 1.372 2.564 1.797 1.682 0.52 3.191 1.26 3.191 3.357 0 2.142-1.604 3.435-3.962 3.435-1.115 0-2.482-0.3-3.523-0.866v-2.097c1.149 0.821 2.596 1.183 3.54 1.183 1.132 0 1.948-0.49 1.948-1.545 0-1.263-1.194-1.435-2.673-1.877-1.588-0.487-3.081-1.212-3.081-3.246 0-2.064 1.541-3.309 3.837-3.309 1.102 0 2.421 0.268 3.378 0.835v2.017c-1.13-0.74-2.468-1.071-3.394-1.071-1.071 0-1.825 0.425-1.825 1.386zM57.27 18.301c0 1.071-0.44 2.032-1.494 2.677-0.816 0.503-1.887 0.726-3.52 0.726h-3.178v-11.409h3.177c1.509 0 2.452 0.156 3.223 0.615 0.833 0.488 1.334 1.26 1.334 2.3 0 1.231-0.722 1.985-1.713 2.332v0.032c1.399 0.345 2.17 1.308 2.17 2.726zM54.11 12.359c-0.441-0.252-0.974-0.318-1.982-0.318h-1.052v3.106h1.775c1.102 0 1.964-0.474 1.964-1.543 0-0.601-0.266-0.994-0.706-1.246zM52.914 16.581h-1.84v3.372h1.274c1.18 0 1.824-0.125 2.266-0.408 0.361-0.236 0.658-0.631 0.658-1.292 0-1.102-0.849-1.671-2.358-1.671zM41.298 16.206c-0.657-0.948-1.274-1.844-1.888-2.759l-0.030 0.017c0.030 1.072 0.030 2.238 0.030 3.452v4.789h-1.814v-11.409h1.771l3.834 5.499c0.657 0.945 1.272 1.844 1.887 2.759l0.029-0.015c-0.029-1.073-0.029-2.24-0.029-3.452v-4.791h1.825v11.409h-1.783l-3.833-5.499zM18.798 16c2.636-3.47 6.8-5.708 11.488-5.708v11.417c-4.688 0-8.852-2.24-11.488-5.708zM16.967 12.829c-0.72-1.721-1.118-3.61-1.118-5.594 0-2.636 0.704-5.108 1.934-7.237l9.865 5.711c-2.207 3.825-6.111 6.542-10.68 7.12zM2.638 26.289c2.209-3.823 6.112-6.542 10.681-7.12 0.721 1.722 1.119 3.611 1.119 5.594 0 2.637-0.703 5.109-1.932 7.238l-9.866-5.711zM2.638 5.709l9.866-5.709c1.23 2.128 1.932 4.599 1.932 7.237 0 1.983-0.397 3.872-1.118 5.593-4.569-0.578-8.472-3.295-10.681-7.12zM11.489 16c-2.638 3.468-6.801 5.708-11.489 5.708v-11.417c4.688 0 8.852 2.239 11.489 5.708zM27.648 26.289l-9.867 5.712c-1.228-2.129-1.932-4.601-1.932-7.237 0-1.984 0.398-3.873 1.119-5.595 4.569 0.578 8.474 3.297 10.681 7.12z"></path>
    </svg>
  </defs>
</svg>
